<svg width="24" height="24" viewBox="0 0 24 24" fill="none" xmlns="http://www.w3.org/2000/svg">
<g clip-path="url(#clip0_277_1283)">
<path d="M11.758 0.00341797H12.2272C12.3222 0.056793 12.4184 0.108407 12.5129 0.163542C15.6802 1.99706 18.8475 3.83039 22.0148 5.66352C22.3527 5.85825 22.5075 6.12278 22.5069 6.51986C22.4991 10.1717 22.4991 13.8234 22.5069 17.4752C22.5069 17.8782 22.3409 18.1322 22.0066 18.3257C18.8451 20.1526 15.6862 21.9834 12.5299 23.8181C12.1568 24.0351 11.826 24.0327 11.4571 23.8181C8.30113 21.9822 5.14184 20.152 1.97922 18.3275C1.64197 18.1327 1.48126 17.8735 1.48243 17.4747C1.48986 13.8229 1.48986 10.1711 1.48243 6.51928C1.48243 6.1216 1.6361 5.85884 1.97395 5.66352C5.23667 3.77877 8.49802 1.89207 11.758 0.00341797ZM11.9873 1.5683C11.9164 1.60291 11.8519 1.63047 11.792 1.66508C9.16511 3.18656 6.53878 4.70844 3.91304 6.2307C3.69544 6.35681 3.69602 6.38261 3.92184 6.51224C6.53272 8.01378 9.14341 9.51591 11.7539 11.0186C11.9228 11.1166 12.056 11.1218 12.2266 11.0186C12.9387 10.5987 13.6584 10.191 14.3757 9.77867L20.0581 6.51224C20.2833 6.38261 20.2886 6.35329 20.0968 6.24243C17.4574 4.71157 14.818 3.18207 12.1786 1.65394C12.1176 1.62227 12.0519 1.59822 11.9873 1.5683ZM11.2718 17.1919C11.2718 15.7168 11.2641 14.2422 11.2782 12.7671C11.2782 12.5008 11.1873 12.3647 10.9644 12.2392C8.37543 10.7623 5.78977 9.27934 3.20743 7.79031C2.9429 7.6384 2.92766 7.64543 2.92766 7.94339V16.0423C2.92766 16.342 2.94291 16.3491 3.20685 16.1983C5.02825 15.1551 6.84945 14.1116 8.67046 13.068C8.75017 13.019 8.83373 12.9767 8.92032 12.9413C9.03139 12.8969 9.15181 12.881 9.27058 12.8952C9.38935 12.9093 9.50269 12.9529 9.60027 13.0221C9.69785 13.0912 9.77655 13.1837 9.82919 13.2912C9.88182 13.3986 9.90671 13.5174 9.9016 13.6369C9.89632 13.9783 9.68693 14.1648 9.41537 14.3232C7.58654 15.3692 5.75869 16.4171 3.93182 17.467C3.69192 17.6043 3.69192 17.6254 3.92419 17.7603L11.0125 21.8661C11.26 22.0092 11.2712 22.0027 11.2712 21.7083C11.272 20.2036 11.2722 18.6982 11.2718 17.1919ZM12.7129 17.1966V18.5545C12.7129 19.6157 12.7129 20.677 12.7129 21.7382C12.7129 21.9939 12.7287 22.0016 12.9563 21.8749L13.0783 21.8057L20.0259 17.782C20.3015 17.6219 20.3015 17.6107 20.0259 17.453C18.3875 16.5145 16.7494 15.576 15.1118 14.6376C14.8684 14.498 14.6203 14.3642 14.3875 14.2082C14.262 14.1259 14.1665 14.0053 14.1152 13.8643C14.064 13.7232 14.0597 13.5694 14.103 13.4258C14.1425 13.2817 14.2259 13.1536 14.3414 13.059C14.457 12.9644 14.5992 12.9081 14.7482 12.8979C14.9529 12.8803 15.1271 12.9653 15.2989 13.0639C17.1262 14.1122 18.954 15.1596 20.7825 16.206C21.0388 16.3526 21.0558 16.345 21.0558 16.0658C21.0558 13.3501 21.0558 10.6344 21.0558 7.91876C21.0558 7.66303 21.03 7.64836 20.8118 7.7733C18.1919 9.27718 15.5732 10.7803 12.9557 12.2826C12.7768 12.3847 12.707 12.4996 12.7082 12.7073C12.717 14.2 12.7129 15.698 12.7129 17.1955V17.1966Z" fill="white"/>
<path d="M0.00390625 20.1868C0.121214 19.9522 0.280159 19.7692 0.547035 19.7117C1.00864 19.6138 1.41629 19.9282 1.42684 20.4039C1.43799 21.0039 1.43037 21.6045 1.43154 22.2045C1.43154 22.5131 1.45031 22.5312 1.76645 22.5324C2.23568 22.5324 2.70492 22.5324 3.16946 22.5324C3.31743 22.5323 3.46528 22.5407 3.61229 22.5576C3.78876 22.5754 3.95178 22.66 4.068 22.794C4.18422 22.9279 4.24487 23.1013 4.23754 23.2785C4.23754 23.6515 3.96598 23.9788 3.59587 23.9823C2.614 23.9988 1.63213 23.9952 0.650266 23.9823C0.337054 23.9788 0.146429 23.7653 0.00507331 23.5055L0.00390625 20.1868Z" fill="white"/>
<path d="M3.75013 0.00345806C4.01466 0.137775 4.21233 0.323708 4.23403 0.641026C4.26394 1.08093 3.96598 1.4176 3.52491 1.42347C2.91608 1.43168 2.30745 1.43168 1.69901 1.42347C1.49489 1.42053 1.42275 1.49151 1.42627 1.69503C1.43507 2.26456 1.42979 2.83468 1.42627 3.40421C1.42627 3.89104 1.25793 4.16026 0.898383 4.25997C0.538834 4.35968 0.253195 4.20718 0.00156955 3.79719C0.00156955 2.58364 0.00156611 1.36951 -0.00195312 0.155957C-0.00195312 0.0263316 0.023856 -0.000648785 0.153481 0.000524293C1.35354 0.00580314 2.55184 0.00345806 3.75013 0.00345806Z" fill="white"/>
<path d="M23.5134 0.00341797C23.8653 0.17938 24.0108 0.457399 24.0043 0.853899C23.9891 1.75776 24.0043 2.6622 23.9961 3.56664C23.999 3.74031 23.9376 3.90892 23.8237 4.04004C23.7098 4.17117 23.5514 4.25554 23.3791 4.27694C23.2116 4.30126 23.0409 4.26587 22.8968 4.17697C22.7528 4.08807 22.6447 3.95133 22.5913 3.7907C22.5621 3.6854 22.5505 3.57602 22.5567 3.46693C22.5567 2.90542 22.5567 2.3441 22.5567 1.78298C22.5567 1.42695 22.5567 1.42695 22.189 1.42636H20.6223C20.1425 1.42636 19.8628 1.2504 19.7689 0.898477C19.6751 0.546554 19.8276 0.240379 20.2382 0.00634995L23.5134 0.00341797Z" fill="white"/>
<path d="M23.9989 21.8562C23.9989 22.3084 23.9989 22.7612 23.9989 23.214C23.9954 23.6997 23.7115 23.9936 23.2323 23.9959C22.3197 24.001 21.4068 24.001 20.4938 23.9959C20.0685 23.9959 19.7653 23.7026 19.7506 23.312C19.7354 22.8926 20.0011 22.5923 20.4398 22.5548C21.0164 22.5061 21.5941 22.5425 22.1713 22.5348C22.556 22.5296 22.556 22.5348 22.5566 22.1383C22.5566 21.5841 22.5566 21.0304 22.5566 20.4761C22.5601 20.0033 22.8446 19.7007 23.2751 19.7007C23.7057 19.7007 23.9936 20.0074 23.9972 20.4749C24.0007 20.9424 23.9989 21.3958 23.9989 21.8562Z" fill="white"/>
</g>
<defs>
<clipPath id="clip0_277_1283">
<rect width="24.0041" height="24" fill="white"/>
</clipPath>
</defs>
</svg>
